<?xml version="1.0" standalone="no"?>
<!DOCTYPE svg PUBLIC "-//W3C//DTD SVG 20010904//EN"
 "http://www.w3.org/TR/2001/REC-SVG-20010904/DTD/svg10.dtd">
<svg version="1.0" xmlns="http://www.w3.org/2000/svg"
 width="500.000000pt" height="500.000000pt" viewBox="0 0 500.000000 500.000000"
 preserveAspectRatio="xMidYMid meet">

<g transform="translate(0.000000,500.000000) scale(0.100000,-0.100000)"
fill="#000000" stroke="none">
<path d="M2174 4101 c-60 -36 -93 -108 -79 -172 4 -17 23 -49 42 -70 112 -124
309 -15 264 147 -14 50 -20 59 -61 89 -43 32 -120 34 -166 6z"/>
<path d="M2087 3543 c-4 -3 -7 -256 -7 -562 0 -520 -2 -559 -19 -597 -22 -49
-60 -80 -114 -95 -66 -18 -132 2 -210 64 -21 16 -40 27 -43 24 -9 -8 -103
-260 -104 -275 0 -30 129 -110 219 -136 64 -19 216 -21 293 -5 161 35 267 132
316 293 14 43 16 142 19 674 l4 622 -174 0 c-95 0 -177 -3 -180 -7z"/>
<path d="M2480 2942 c0 -335 3 -691 7 -790 l6 -182 161 0 c89 0 166 4 171 8 6
4 10 121 10 314 0 168 3 309 6 312 4 4 115 8 248 10 133 2 244 5 246 7 2 2 5
68 7 146 3 135 2 142 -17 147 -11 3 -124 6 -251 6 -202 0 -233 2 -238 16 -8
21 -8 233 0 273 l6 31 272 2 271 3 3 106 3 106 -50 5 c-34 3 -71 18 -120 46
l-69 42 -336 0 -336 0 0 -608z"/>
<path d="M1867 1833 c-4 -3 -7 -33 -7 -66 0 -58 -1 -59 -24 -53 -31 8 -43 -9
-17 -23 48 -26 71 1 71 85 0 59 -6 74 -23 57z"/>
<path d="M1976 1819 c-20 -16 -26 -29 -26 -59 0 -30 6 -43 26 -59 34 -27 57
-26 90 2 20 17 27 33 27 57 0 24 -7 40 -27 57 -33 28 -56 29 -90 2z m78 -25
c31 -30 9 -84 -34 -84 -11 0 -27 11 -36 25 -15 23 -15 27 0 50 19 29 47 32 70
9z"/>
<path d="M2155 1817 c-4 -13 -5 -48 -3 -78 l3 -54 37 -3 c44 -4 85 28 72 56
-4 9 -7 31 -6 49 2 37 -18 53 -67 53 -24 0 -32 -5 -36 -23z m83 -24 c2 -9 -7
-13 -27 -13 -21 0 -31 5 -31 16 0 19 51 16 58 -3z m2 -63 c0 -16 -7 -20 -30
-20 -23 0 -30 4 -30 20 0 16 7 20 30 20 23 0 30 -4 30 -20z"/>
<path d="M2420 1760 c0 -47 4 -80 10 -80 6 0 10 16 10 35 0 32 2 35 30 35 20
0 30 5 30 15 0 10 -10 15 -30 15 -20 0 -30 5 -30 15 0 10 11 15 35 15 24 0 35
5 35 15 0 11 -12 15 -45 15 l-45 0 0 -80z"/>
<path d="M2560 1760 l0 -80 45 0 c33 0 45 4 45 15 0 10 -10 15 -30 15 -29 0
-30 1 -30 49 0 54 -7 81 -21 81 -5 0 -9 -36 -9 -80z"/>
<path d="M2739 1775 c-34 -77 -39 -113 -10 -77 13 14 30 22 51 22 21 0 38 -8
51 -22 16 -20 18 -21 19 -5 0 26 -57 147 -70 147 -6 0 -24 -29 -41 -65z m55
-1 c10 -26 7 -34 -14 -34 -11 0 -20 4 -20 9 0 17 12 41 20 41 4 0 11 -7 14
-16z"/>
<path d="M2916 1824 c-8 -20 -8 -108 0 -128 9 -24 24 -9 24 25 0 38 10 37 48
-7 38 -42 52 -39 26 5 -14 24 -16 33 -6 43 17 17 15 44 -4 62 -21 21 -80 21
-88 0z m74 -34 c0 -15 -7 -20 -25 -20 -18 0 -25 5 -25 20 0 15 7 20 25 20 18
0 25 -5 25 -20z"/>
<path d="M3100 1766 c0 -41 4 -78 10 -81 14 -9 81 6 74 16 -3 5 -16 9 -30 9
-17 0 -24 5 -24 20 0 15 7 20 26 20 31 0 28 23 -4 28 -33 5 -27 29 9 36 42 8
27 26 -22 26 l-39 0 0 -74z"/>
</g>
</svg>
